<?xml version="1.0" standalone="no"?>
<!DOCTYPE svg PUBLIC "-//W3C//DTD SVG 20010904//EN"
 "http://www.w3.org/TR/2001/REC-SVG-20010904/DTD/svg10.dtd">
<svg version="1.0" xmlns="http://www.w3.org/2000/svg"
 width="500px" height="500px" viewBox="0 0 512.000000 512.000000"
 preserveAspectRatio="xMidYMid meet">

<g transform="translate(0.000000,512.000000) scale(0.100000,-0.100000)"
fill="#000000" stroke="none">
<path d="M1215 5109 c-147 -11 -355 -44 -495 -79 -370 -92 -607 -235 -694
-420 l-21 -45 0 -1685 0 -1685 21 -45 c126 -267 583 -453 1234 -501 184 -14
527 -6 585 13 85 28 99 136 25 186 -32 21 -41 23 -110 15 -124 -13 -503 -6
-645 11 -371 46 -628 128 -801 257 -91 67 -98 87 -102 282 l-4 169 39 -25
c224 -141 583 -236 1013 -268 184 -14 527 -6 585 13 85 28 99 136 25 186 -32
21 -41 23 -110 15 -124 -13 -503 -6 -645 11 -371 46 -628 128 -801 257 -91 67
-98 87 -102 282 l-4 169 39 -25 c224 -141 583 -236 1013 -268 184 -14 527 -6
585 13 85 28 99 136 25 186 -32 21 -41 23 -110 15 -124 -13 -503 -6 -645 11
-371 46 -628 128 -801 257 -91 67 -98 87 -102 282 l-4 169 39 -25 c405 -256
1236 -348 1907 -212 422 85 702 237 799 434 l32 66 0 715 0 715 -32 65 c-56
113 -172 213 -338 291 -341 160 -883 237 -1400 198z m665 -225 c354 -40 670
-145 811 -271 107 -97 107 -169 0 -266 -141 -126 -448 -228 -816 -273 -189
-22 -581 -22 -760 0 -354 45 -594 117 -767 232 -91 61 -128 111 -128 174 0 63
37 113 128 174 308 204 926 297 1532 230z m-1524 -827 c148 -74 374 -139 619
-177 619 -95 1351 -6 1719 210 37 22 70 40 72 40 2 0 4 -72 4 -160 0 -185 -3
-194 -79 -263 -141 -126 -448 -228 -816 -273 -188 -22 -581 -22 -760 0 -373
47 -628 128 -801 257 -91 67 -98 87 -102 282 l-4 169 39 -25 c21 -14 71 -41
109 -60z m0 -640 c148 -74 374 -139 619 -177 619 -95 1351 -6 1719 210 37 22
70 40 72 40 2 0 4 -72 4 -160 0 -185 -3 -194 -79 -263 -141 -126 -448 -228
-816 -273 -188 -22 -581 -22 -760 0 -373 47 -628 128 -801 257 -91 67 -98 87
-102 282 l-4 169 39 -25 c21 -14 71 -41 109 -60z"/>
<path d="M3350 2549 c-163 -13 -372 -47 -516 -84 -356 -91 -579 -227 -667
-404 l-32 -66 0 -715 0 -715 32 -65 c88 -178 311 -314 667 -405 638 -163 1472
-107 1946 130 155 78 262 175 314 285 21 45 21 53 21 770 0 717 0 725 -21 770
-74 157 -253 282 -539 375 -334 110 -792 157 -1205 124z m467 -209 c278 -15
513 -58 719 -131 108 -38 149 -58 237 -117 128 -84 161 -172 98 -259 -51 -70
-192 -153 -356 -210 -252 -86 -525 -125 -885 -125 -353 0 -617 35 -867 117
-188 62 -357 166 -398 246 -33 64 -14 121 64 192 166 149 557 262 991 287 186
10 210 10 397 0z m-1429 -789 c82 -57 265 -129 446 -176 567 -145 1294 -119
1797 65 44 16 123 52 176 79 53 28 98 51 101 51 2 0 3 -73 0 -163 -4 -188 -12
-210 -102 -276 -173 -129 -428 -210 -801 -257 -179 -22 -572 -22 -760 0 -368
45 -675 147 -816 273 -76 69 -79 78 -79 263 0 88 3 160 6 160 3 0 18 -8 32
-19z m0 -640 c82 -57 265 -129 446 -176 567 -145 1294 -119 1797 65 44 16 123
52 176 79 53 28 98 51 101 51 2 0 3 -73 0 -163 -4 -188 -12 -210 -102 -276
-173 -129 -428 -210 -801 -257 -179 -22 -572 -22 -760 0 -368 45 -675 147
-816 273 -76 69 -79 78 -79 263 0 88 3 160 6 160 3 0 18 -8 32 -19z"/>
</g>
</svg>
