<?xml version="1.0" standalone="no"?>
<!DOCTYPE svg PUBLIC "-//W3C//DTD SVG 20010904//EN"
 "http://www.w3.org/TR/2001/REC-SVG-20010904/DTD/svg10.dtd">
<svg version="1.0" xmlns="http://www.w3.org/2000/svg"
 width="500px" height="500px" viewBox="0 0 512.000000 512.000000"
 preserveAspectRatio="xMidYMid meet">

<g transform="translate(0.000000,512.000000) scale(0.100000,-0.100000)"
fill="#000000" stroke="none">
<path d="M2327 5110 c-493 -52 -923 -219 -1314 -511 -125 -94 -397 -366 -489
-489 -282 -377 -445 -777 -506 -1240 -16 -123 -16 -497 0 -620 61 -463 224
-863 506 -1240 92 -123 364 -395 489 -489 352 -262 737 -425 1172 -493 201
-31 575 -31 785 1 443 67 771 212 1001 440 161 161 228 298 236 486 9 175 -37
309 -152 448 l-56 68 31 39 c90 113 108 244 51 367 -29 61 -58 93 -264 298
-162 161 -246 237 -279 253 -94 46 -203 46 -296 0 -27 -13 -98 -72 -169 -142
l-123 -119 -32 14 c-18 7 -69 38 -113 68 -226 154 -469 407 -601 624 l-43 72
113 115 c130 132 160 177 182 261 13 49 14 73 5 120 -18 107 -49 148 -291 389
-268 269 -293 285 -430 285 -136 0 -178 -26 -381 -232 -129 -132 -171 -182
-197 -233 -98 -198 -73 -458 79 -819 136 -323 363 -646 663 -947 179 -179 275
-260 441 -373 369 -252 726 -397 1000 -408 189 -8 289 23 414 127 l64 54 34
-39 c122 -142 134 -327 31 -488 -158 -244 -521 -421 -988 -483 -187 -24 -496
-22 -676 5 -303 45 -590 148 -844 301 -604 363 -1003 965 -1106 1665 -23 163
-23 467 0 630 136 927 799 1676 1696 1914 803 213 1653 -23 2237 -620 117
-120 186 -204 278 -343 273 -411 406 -911 374 -1406 -10 -162 -18 -212 -55
-383 -16 -73 -24 -129 -20 -150 17 -86 112 -126 190 -78 38 24 47 43 75 156
74 304 89 656 42 972 -84 562 -345 1065 -761 1466 -385 372 -866 609 -1395
688 -151 23 -474 33 -608 19z m-345 -1447 c114 -114 214 -220 222 -237 10 -21
12 -36 5 -55 -6 -14 -75 -91 -153 -171 -160 -161 -174 -185 -156 -264 38 -172
295 -513 550 -730 122 -105 255 -199 362 -255 176 -93 189 -89 393 110 135
131 157 149 186 149 30 0 55 -21 251 -218 275 -275 268 -239 87 -429 -153
-160 -164 -169 -230 -194 -129 -49 -366 4 -664 151 -460 225 -856 583 -1165
1050 -143 217 -270 505 -300 682 -17 96 -9 233 15 283 21 43 201 235 278 297
84 66 81 68 319 -169z"/>
</g>
</svg>
