<?xml version="1.0" standalone="no"?>
<!DOCTYPE svg PUBLIC "-//W3C//DTD SVG 20010904//EN"
 "http://www.w3.org/TR/2001/REC-SVG-20010904/DTD/svg10.dtd">
<svg version="1.0" xmlns="http://www.w3.org/2000/svg"
 width="1200px" height="1200px" viewBox="0 0 4096.000000 4096.000000"
 preserveAspectRatio="xMidYMid meet">

<g transform="translate(0.000000,4096.000000) scale(0.100000,-0.100000)"
fill="#000000" stroke="none">
<path d="M21335 36930 c-1985 -83 -3780 -404 -5550 -994 -542 -181 -743 -259
-846 -328 -149 -100 -252 -233 -312 -406 -26 -73 -31 -106 -35 -209 -9 -248
73 -451 252 -620 170 -162 391 -239 615 -213 100 12 139 23 396 118 1400 515
2958 859 4530 1002 639 57 1040 74 1770 74 614 1 822 -6 1325 -40 1527 -102
3062 -401 4465 -868 1107 -368 1965 -739 2930 -1264 1175 -640 2250 -1411
3210 -2303 178 -165 629 -616 780 -779 1873 -2026 3043 -4428 3390 -6960 122
-890 146 -1824 70 -2740 -176 -2114 -883 -4158 -2030 -5865 -397 -591 -791
-1075 -1334 -1638 -177 -185 -308 -343 -393 -477 -99 -154 -204 -374 -252
-525 -14 -44 -279 -964 -590 -2045 -311 -1081 -711 -2471 -889 -3090 l-324
-1125 -2056 -3 -2056 -2 -10 37 c-6 21 -116 450 -245 953 -129 503 -246 946
-261 983 -90 223 -291 400 -530 468 -96 27 390 23 -5850 44 -4652 15 -4445 16
-4580 -30 -222 -75 -409 -260 -486 -480 -11 -31 -125 -467 -255 -968 -129
-502 -242 -936 -250 -965 l-15 -52 -2056 2 -2057 3 -592 2070 c-357 1249 -610
2117 -638 2188 -192 492 -552 940 -992 1235 -136 91 -224 136 -551 287 -2094
966 -4006 2080 -5703 3324 -470 344 -531 397 -611 532 -23 37 -55 110 -72 161
l-32 93 4 3820 c2 2101 6 3823 10 3826 3 4 290 11 636 17 699 11 686 10 840
82 95 44 189 113 243 178 131 159 4080 5435 4112 5495 61 114 84 210 84 352 0
135 -17 231 -68 382 -30 88 -58 159 -198 498 -23 55 -68 156 -101 225 -32 69
-101 220 -152 335 -156 353 -232 509 -637 1319 -365 729 -660 1304 -766 1491
-25 44 -58 103 -72 130 -15 28 -47 89 -73 136 l-47 86 192 7 c1076 39 1881
-59 2752 -335 244 -77 676 -260 1024 -432 175 -87 855 -491 1212 -720 250
-160 480 -340 785 -612 756 -674 1397 -1500 1868 -2405 97 -187 144 -257 231
-337 155 -146 366 -222 576 -210 489 30 834 509 714 993 -20 82 -161 361 -326
649 -285 497 -634 1000 -993 1430 -541 648 -1263 1320 -1840 1711 -350 237
-1309 806 -1625 964 -297 149 -877 395 -1100 468 -683 222 -1339 349 -2165
419 -307 26 -1304 26 -1585 0 -415 -38 -521 -61 -701 -151 -368 -184 -641
-540 -715 -933 -22 -121 -15 -350 15 -483 51 -220 136 -446 280 -737 76 -153
155 -305 176 -338 166 -257 1037 -1995 1360 -2710 37 -82 91 -202 120 -265
100 -220 177 -418 168 -432 -4 -8 -792 -1056 -1751 -2330 l-1743 -2315 -787
-7 c-433 -4 -818 -12 -856 -17 -306 -42 -562 -267 -652 -574 -16 -56 -18 -181
-24 -1695 -4 -899 -8 -2841 -10 -4315 -2 -2661 -2 -2681 19 -2813 83 -540 337
-1030 725 -1399 108 -103 447 -361 871 -664 1237 -884 2521 -1673 3970 -2439
356 -188 1282 -648 1670 -828 192 -90 381 -184 420 -210 152 -101 325 -309
394 -475 16 -40 329 -1125 695 -2412 745 -2618 693 -2456 829 -2601 120 -129
242 -202 407 -246 l85 -23 2760 0 2760 0 85 23 c253 67 441 229 538 465 17 40
143 511 282 1047 138 536 252 975 253 976 2 1 1694 -6 6609 -24 1164 -4 2120
-10 2123 -14 3 -3 116 -439 251 -969 229 -900 248 -971 294 -1066 40 -81 65
-118 131 -187 141 -149 299 -226 503 -247 65 -6 1052 -9 2806 -7 l2705 3 79
22 c229 66 408 211 520 424 46 86 153 455 1952 6704 104 361 119 390 304 580
555 572 887 961 1276 1495 1396 1918 2278 4273 2523 6740 90 901 94 1857 10
2740 -64 686 -168 1311 -316 1910 -436 1763 -1169 3365 -2226 4863 -791 1123
-1776 2185 -2860 3086 -1281 1064 -2665 1921 -4232 2618 -2033 905 -4242 1458
-6545 1638 -498 39 -737 47 -1450 50 -393 2 -805 -1 -915 -5z"/>
<path d="M20240 30119 c-293 -77 -513 -307 -574 -601 -14 -65 -16 -165 -16
-648 l0 -570 -24 0 c-44 0 -369 -58 -476 -85 -365 -91 -696 -220 -965 -375
-881 -506 -1496 -1347 -1689 -2310 -156 -774 17 -1638 462 -2310 356 -537 883
-970 1644 -1351 403 -202 814 -369 1498 -609 827 -291 1214 -443 1550 -612
310 -155 496 -279 673 -448 313 -299 504 -624 589 -1007 20 -86 22 -128 23
-343 0 -217 -3 -257 -22 -345 -112 -503 -420 -936 -887 -1246 -572 -380 -1319
-539 -2296 -490 -696 35 -1565 163 -2156 317 -199 51 -289 61 -402 45 -420
-61 -709 -409 -689 -825 15 -318 220 -598 515 -706 228 -83 903 -229 1408
-304 335 -50 800 -100 1121 -121 l102 -7 3 -567 c4 -633 3 -618 78 -777 106
-222 301 -376 544 -429 116 -26 293 -17 401 19 211 72 363 204 460 401 82 166
79 132 83 831 l3 622 47 7 c77 11 367 82 512 126 1203 366 2117 1168 2525
2218 115 298 186 600 216 930 15 168 7 531 -16 696 -99 728 -417 1373 -945
1919 -585 605 -1212 950 -2620 1439 -884 307 -1267 457 -1645 643 -787 386
-1161 806 -1265 1419 -19 111 -21 154 -17 295 6 183 19 257 77 431 165 496
586 931 1100 1133 189 75 455 136 750 173 206 25 756 25 990 0 562 -61 1063
-181 1602 -383 232 -86 291 -98 447 -92 177 8 320 62 455 174 87 72 147 149
202 259 60 122 84 222 84 352 0 128 -20 222 -70 330 -95 203 -228 325 -458
417 -515 207 -1233 397 -1807 479 l-160 23 -5 619 -6 620 -27 90 c-85 275
-282 466 -551 535 -106 27 -271 27 -376 -1z"/>
<path d="M10068 25770 c-563 -52 -1046 -432 -1222 -961 -60 -181 -71 -252 -71
-464 1 -170 4 -202 28 -303 130 -555 551 -965 1117 -1088 120 -26 419 -27 540
-1 450 96 804 366 1005 766 163 326 194 713 83 1060 -201 635 -823 1051 -1480
991z"/>
</g>
</svg>
