<?xml version="1.0" standalone="no"?>
<!DOCTYPE svg PUBLIC "-//W3C//DTD SVG 20010904//EN"
 "http://www.w3.org/TR/2001/REC-SVG-20010904/DTD/svg10.dtd">
<svg version="1.0" xmlns="http://www.w3.org/2000/svg"
 width="512.000000pt" height="512.000000pt" viewBox="0 0 512.000000 512.000000"
 preserveAspectRatio="xMidYMid meet">

<g transform="translate(0.000000,512.000000) scale(0.100000,-0.100000)"
fill="#ed0f0f" stroke="none">
<path d="M1380 4053 c-153 -25 -302 -133 -369 -266 -17 -34 -117 -329 -222
-656 -153 -477 -200 -612 -240 -686 -94 -176 -125 -310 -116 -503 6 -125 21
-199 64 -302 159 -386 563 -624 967 -571 315 42 578 226 717 503 46 92 86 223
95 314 7 63 8 66 51 96 136 93 331 93 467 -1 41 -28 46 -36 46 -69 0 -20 9
-75 19 -122 120 -532 664 -846 1185 -684 327 102 575 386 635 728 14 77 14
235 0 312 -19 111 -74 248 -144 364 -8 14 -100 293 -205 620 -105 327 -202
619 -216 648 -33 68 -126 167 -196 209 -79 48 -204 77 -296 69 -77 -6 -126
-25 -136 -51 -15 -40 -6 -83 22 -105 24 -20 35 -21 102 -16 86 8 167 -10 228
-47 47 -31 110 -100 128 -142 25 -61 295 -907 291 -912 -3 -2 -29 9 -58 26
-74 41 -217 87 -318 102 -208 30 -460 -30 -637 -152 -193 -132 -335 -345 -388
-581 l-6 -27 -53 23 c-149 66 -325 66 -474 0 l-53 -23 -10 42 c-61 235 -176
410 -361 548 -276 205 -673 234 -976 69 -31 -16 -58 -28 -60 -26 -8 8 279 891
303 932 34 60 116 130 177 151 37 12 82 18 155 18 97 0 105 2 123 24 27 33 25
82 -5 111 -36 33 -144 48 -236 33z"/>
</g>
</svg>
